<svg width="168" height="45" viewBox="0 0 168 45" fill="none" xmlns="http://www.w3.org/2000/svg">
<g clip-path="url(#clip0_3660_2886)">
<path fill-rule="evenodd" clip-rule="evenodd" d="M42.8238 -19.666H53.7165L44.8025 0.847797L25.7442 44.7126H14.8516L42.8238 -19.666Z" fill="url(#paint0_linear_3660_2886)"/>
<path fill-rule="evenodd" clip-rule="evenodd" d="M10.8926 10.5327H0L9.40439 32.1769H20.297L10.8926 10.5327Z" fill="#03D662"/>
<path d="M47.8331 16.8127L56.89 36.3561L66.1481 16.4445H68.8356L57.6453 40.4957H56.1278C52.4029 32.4763 48.6693 24.4604 44.9375 16.4445H47.6576L47.8297 16.8127H47.8331ZM83.4549 24.1645C85.0464 25.8867 85.929 28.323 85.929 31.167V32.189H69.9677C70.2137 33.839 70.9862 35.2533 72.0908 36.2976C73.3743 37.5123 75.1103 38.2263 76.9909 38.2263C78.252 38.2263 79.4856 37.9889 80.5782 37.5071C81.5967 37.0581 82.4966 36.3991 83.183 35.5268L83.5736 35.0296L85.4748 36.523L85.0791 37.022C84.193 38.1386 82.9835 39.0556 81.5503 39.6853C80.1824 40.2841 78.6133 40.623 76.9255 40.623C74.1778 40.623 71.8396 39.5838 70.1707 37.9029C68.4433 36.1634 67.4368 33.7392 67.4368 31.0707C67.4368 28.3849 68.4399 25.9555 70.1638 24.2127C71.8362 22.5248 74.1744 21.4856 76.9255 21.4856C79.6611 21.4856 81.8909 22.4732 83.4549 24.1645ZM81.5623 25.6407C80.444 24.5137 78.8714 23.8513 76.9255 23.8513C74.9469 23.8513 73.2539 24.5619 72.0289 25.7302C70.9123 26.7952 70.1759 28.2438 69.9574 29.8887H83.4755C83.2656 28.1595 82.6049 26.6919 81.5623 25.6407ZM93.7316 22.1497C94.9514 21.7162 96.3296 21.4856 97.8023 21.4856C100.17 21.4856 102.265 22.2564 103.745 23.7739C105.111 25.1762 105.934 27.196 105.934 29.8112V40.4957H103.502V29.8112C103.502 27.9307 102.917 26.4837 101.951 25.4962C100.911 24.4363 99.411 23.8858 97.706 23.8858C96.3571 23.8858 95.1785 24.0974 94.1411 24.4862C93.1982 24.8389 92.3638 25.3396 91.617 25.9642V40.4974H89.1859V21.8108H91.617V23.2148C92.2502 22.7829 92.9608 22.4268 93.7316 22.1515V22.1497ZM124.67 23.1408V14.8599H127.101V40.494H124.67V38.9507C124.009 39.3653 123.263 39.7129 122.461 39.9813C121.224 40.3959 119.851 40.6247 118.452 40.6247C115.768 40.6247 113.325 39.5615 111.554 37.8306C109.796 36.1101 108.704 33.7272 108.704 31.0724C108.704 28.4021 109.794 26.014 111.551 24.2901C113.32 22.5524 115.766 21.4873 118.452 21.4873C119.865 21.4873 121.179 21.7041 122.366 22.0895C123.201 22.3614 123.972 22.7175 124.668 23.1425L124.67 23.1408ZM113.308 36.1256C114.639 37.4246 116.484 38.2246 118.517 38.2246C119.818 38.2246 121.023 38.0113 122.084 37.6155C123.075 37.2474 123.949 36.7209 124.67 36.0671V25.9796C123.959 25.3482 123.091 24.8355 122.094 24.4742C121.04 24.0922 119.835 23.8823 118.516 23.8823C116.482 23.8823 114.636 24.6824 113.306 25.9882C111.986 27.2804 111.167 29.0731 111.167 31.0707C111.167 33.0544 111.986 34.8369 113.306 36.1256H113.308ZM133.319 40.494H131.49V21.8074H133.952V40.494H133.319ZM131.571 16.694C131.862 16.4135 132.261 16.2483 132.705 16.2483C133.149 16.2483 133.548 16.4135 133.839 16.694C134.131 16.9761 134.308 17.3684 134.308 17.8192C134.308 18.2717 134.131 18.6622 133.839 18.9444C133.55 19.2249 133.151 19.39 132.705 19.39C132.261 19.39 131.864 19.2249 131.571 18.9444C131.279 18.6622 131.101 18.27 131.101 17.8192C131.101 17.3667 131.279 16.9761 131.571 16.694ZM149.996 37.5983C150.87 37.1768 151.653 36.5591 152.288 35.8021L152.734 35.2722L154.444 36.9824L154.062 37.428C153.2 38.4293 152.15 39.2363 150.982 39.7886C149.84 40.3271 148.584 40.6247 147.279 40.6247C144.497 40.6247 141.98 39.558 140.153 37.8392C138.314 36.1066 137.177 33.7117 137.177 31.0724C137.177 28.4193 138.312 26.0175 140.15 24.2815C141.975 22.5558 144.496 21.4873 147.279 21.4873C148.621 21.4873 149.884 21.7798 151.02 22.3063C152.202 22.8552 153.245 23.6586 154.094 24.6497L154.499 25.1211L152.711 26.7023L152.295 26.2136C151.677 25.4893 150.903 24.8957 150.029 24.4897C149.194 24.1008 148.262 23.8823 147.281 23.8823C145.151 23.8823 143.228 24.6892 141.837 25.9968C140.461 27.2941 139.608 29.0852 139.608 31.0689C139.608 33.0372 140.461 34.8231 141.841 36.1152C143.229 37.4177 145.151 38.2229 147.279 38.2229C148.243 38.2229 149.163 37.9975 149.996 37.5966V37.5983ZM167.755 22.4405V24.1404H160.97V34.3001C160.97 35.704 161.271 36.6744 161.792 37.2921C162.341 37.9424 163.177 38.2229 164.182 38.2229C164.877 38.2229 165.421 38.185 165.856 38.13C166.286 38.0749 166.622 37.9992 166.89 37.9252L167.692 37.7016V40.0862L167.219 40.2101C166.892 40.2961 166.455 40.3994 165.913 40.4802C165.367 40.5611 164.714 40.6213 163.955 40.6213C162.399 40.6213 160.985 40.0862 159.979 39.0333C159.065 38.0784 158.506 36.7088 158.506 34.9453V24.1387H155.306V21.8056H158.506V14.8564H160.97V21.8056H167.755V22.4388V22.4405Z" fill="#030061"/>
</g>
<defs>
<linearGradient id="paint0_linear_3660_2886" x1="33.8651" y1="44.6403" x2="34.7013" y2="-19.5938" gradientUnits="userSpaceOnUse">
<stop stop-color="#00DEF2"/>
<stop offset="0.670588" stop-color="#00D1E4" stop-opacity="0"/>
<stop offset="1" stop-color="#00C4D6" stop-opacity="0"/>
</linearGradient>
<clipPath id="clip0_3660_2886">
<rect width="168" height="44" fill="white" transform="translate(0 0.333984)"/>
</clipPath>
</defs>
</svg>
